{"title":"Archimede le Clochard 1958.avi","uid":7844392,"size":766756864,"categoryP":"video","categoryS":"movies","magnet":"?xt=urn:btih:03132c5da771441c4fee44ce8c7f30da5ac5470b&amp;dn=Archimede+le+Clochard+1958.avi&amp;tr=udp%3A%2F%2Ftracker.openbittorrent.com%3A80&amp;tr=udp%3A%2F%2Fopen.demonii.com%3A1337&amp;tr=udp%3A%2F%2Ftracker.coppersurfer.tk%3A6969&amp;tr=udp%3A%2F%2Fexodus.desync.com%3A6969","seeders":2,"leechers":0,"uploader":"Bonie75","files":-1,"time":1353431446,"description":"Francais1958 - Archimede le clochard - Gabin - Audiard.Avi\nFormat                                   : AVI\nFormat/Info                              : Audio Video Interleave\nFile size                                : 731 MiB\nDuration                                 : 1h 32mn\nOverall bit rate                         : 1 110 Kbps\nWriting library                          : VirtualDub build 13870/release\n\nVideo\nID                                       : 0\nFormat                                   : MPEG-4 Visual\nFormat settings, BVOP                    : Yes\nFormat settings, QPel                    : No\nFormat settings, GMC                     : No warppoints\nFormat settings, Matrix                  : Default (H.263)\nCodec ID                                 : DX50\nCodec ID/Hint                            : DivX 5\nDuration                                 : 1h 32mn\nBit rate                                 : 1 037 Kbps\nWidth                                    : 512 pixels\nHeight                                   : 296 pixels\nDisplay aspect ratio                     : 1.730\nFrame rate                               : 25.000 fps\nColor space                              : YUV\nChroma subsampling                       : 4:2:0\nBit depth                                : 8 bits\nScan type                                : Progressive\nCompression mode                         : Lossy\nBits/(Pixel*Frame)                       : 0.274\nStream size                              : 683 MiB (93%)\nWriting library                          : DivX 5.0.2 (UTC 2002-05-16)\n\nAudio\nID                                       : 1\nFormat                                   : WMA\nFormat version                           : Version 2\nCodec ID                                 : 161\nCodec ID/Info                            : Windows Media Audio\nDuration                                 : 1h 32mn\nBit rate                                 : 64.1 Kbps\nChannel(s)                               : 2 channels\nSampling rate                            : 44.1 KHz\nBit depth                                : 16 bits\nStream size                              : 42.2 MiB (6%)\nInterleave, duration                     : 46 ms (1.16 video frame)\nInterleave, preload duration             : 464 ms\n","torrent":{"xt":"urn:btih:03132c5da771441c4fee44ce8c7f30da5ac5470b","amp;dn":"Archimede+le+Clochard+1958.avi","amp;tr":["udp%3A%2F%2Ftracker.openbittorrent.com%3A80","udp%3A%2F%2Fopen.demonii.com%3A1337","udp%3A%2F%2Ftracker.coppersurfer.tk%3A6969","udp%3A%2F%2Fexodus.desync.com%3A6969"],"infoHash":"03132c5da771441c4fee44ce8c7f30da5ac5470b","infoHashBuffer":{"type":"Buffer","data":[3,19,44,93,167,113,68,28,79,238,68,206,140,127,48,218,90,197,71,11]},"announce":[],"urlList":[]}}